HIERARCHY
ROOT Hips
{
	OFFSET 0.000000 0.000000 0.000000
	CHANNELS 6 Xposition Yposition Zposition Xrotation Yrotation Zrotation
	JOINT LeftUpLeg_virtual
	{
		OFFSET 0.000000 0.000000 0.000000
		CHANNELS 3 Xrotation Yrotation Zrotation
		JOINT LeftUpLeg
		{
			OFFSET 11.394100 -6.187798 -0.413800
			CHANNELS 3 Xrotation Yrotation Zrotation
			JOINT LeftLeg
			{
				OFFSET 0.430247 -32.302673 3.732800
				CHANNELS 3 Xrotation Yrotation Zrotation
				JOINT LeftFoot
				{
					OFFSET -0.430247 -48.264931 -6.423300
					CHANNELS 3 Xrotation Yrotation Zrotation
					JOINT LeftToeBase
					{
						OFFSET 4.230900 -16.068199 23.438400
						CHANNELS 3 Xrotation Yrotation Zrotation
						JOINT LeftToe_End
						{
							OFFSET 4.510700 0.695400 19.974600
							CHANNELS 3 Xrotation Yrotation Zrotation
							End Site
							{
								OFFSET 0 0 0
							}
						}
					}
				}
			}
		}
	}
	JOINT RightUpLeg_virtual
	{
		OFFSET 0.000000 0.000000 0.000000
		CHANNELS 3 Xrotation Yrotation Zrotation
		JOINT RightUpLeg
		{
			OFFSET -11.333700 -6.187798 -0.413800
			CHANNELS 3 Xrotation Yrotation Zrotation
			JOINT RightLeg
			{
				OFFSET -0.430392 -32.302628 3.733000
				CHANNELS 3 Xrotation Yrotation Zrotation
				JOINT RightFoot
				{
					OFFSET 0.430392 -48.264973 -6.423500
					CHANNELS 3 Xrotation Yrotation Zrotation
					JOINT RightToeBase
					{
						OFFSET -4.230900 -16.068199 23.438400
						CHANNELS 3 Xrotation Yrotation Zrotation
						JOINT RightToe_End
						{
							OFFSET -4.510700 0.695400 19.974600
							CHANNELS 3 Xrotation Yrotation Zrotation
							End Site
							{
								OFFSET 0 0 0
							}
						}
					}
				}
			}
		}
	}
	JOINT Spine_virtual
	{
		OFFSET 0.000000 0.000000 0.000000
		CHANNELS 3 Xrotation Yrotation Zrotation
		JOINT Spine
		{
			OFFSET -0.002400 12.777504 0.315300
			CHANNELS 3 Xrotation Yrotation Zrotation
			JOINT Spine1
			{
				OFFSET -0.002067 5.816869 0.032633
				CHANNELS 3 Xrotation Yrotation Zrotation
				JOINT Spine1_split
				{
					OFFSET -0.002067 5.816869 0.032633
					CHANNELS 3 Xrotation Yrotation Zrotation
					JOINT Spine2
					{
						OFFSET -0.002067 5.816869 0.032633
						CHANNELS 3 Xrotation Yrotation Zrotation
						JOINT Neck_virtual
						{
							OFFSET 0.000000 0.000000 0.000000
							CHANNELS 3 Xrotation Yrotation Zrotation
							JOINT Neck
							{
								OFFSET -0.003700 21.199493 -0.826900
								CHANNELS 3 Xrotation Yrotation Zrotation
								JOINT Head
								{
									OFFSET 0.000000 20.442200 4.834800
									CHANNELS 3 Xrotation Yrotation Zrotation
									JOINT HeadTop_End
									{
										OFFSET 0.000000 34.668396 4.968400
										CHANNELS 3 Xrotation Yrotation Zrotation
										End Site
										{
											OFFSET 0 0 0
										}
									}
								}
							}
						}
						JOINT LeftShoulder_virtual
						{
							OFFSET 0.000000 0.000000 0.000000
							CHANNELS 3 Xrotation Yrotation Zrotation
							JOINT LeftShoulder
							{
								OFFSET 3.288150 8.794197 -1.372250
								CHANNELS 3 Xrotation Yrotation Zrotation
								JOINT LeftShoulder_split
								{
									OFFSET 3.288150 8.794197 -1.372250
									CHANNELS 3 Xrotation Yrotation Zrotation
									JOINT LeftArm
									{
										OFFSET 11.953299 -2.279007 -0.146200
										CHANNELS 3 Xrotation Yrotation Zrotation
										JOINT LeftForeArm
										{
											OFFSET 18.448900 0.000000 0.000000
											CHANNELS 3 Xrotation Yrotation Zrotation
											JOINT LeftHand
											{
												OFFSET 29.527798 0.000000 0.000000
												CHANNELS 3 Xrotation Yrotation Zrotation
												End Site
												{
													OFFSET 0 0 0
												}
											}
										}
									}
								}
							}
						}
						JOINT RightShoulder_virtual
						{
							OFFSET 0.000000 0.000000 0.000000
							CHANNELS 3 Xrotation Yrotation Zrotation
							JOINT RightShoulder
							{
								OFFSET -3.249400 8.794197 -1.372250
								CHANNELS 3 Xrotation Yrotation Zrotation
								JOINT RightShoulder_split
								{
									OFFSET -3.249400 8.794197 -1.372250
									CHANNELS 3 Xrotation Yrotation Zrotation
									JOINT RightArm
									{
										OFFSET -11.953299 -2.279007 -0.146200
										CHANNELS 3 Xrotation Yrotation Zrotation
										JOINT RightForeArm
										{
											OFFSET -18.448900 0.000000 0.000000
											CHANNELS 3 Xrotation Yrotation Zrotation
											JOINT RightHand
											{
												OFFSET -29.527802 0.000000 0.000000
												CHANNELS 3 Xrotation Yrotation Zrotation
												End Site
												{
													OFFSET 0 0 0
												}
											}
										}
									}
								}
							}
						}
					}
				}
			}
		}
	}
}
MOTION
Frames: 4
Frame Time: 0.03333333
4.041509 193.180130 -24.943317 0.000000 0.000000 0.000000 4.398276 -7.675008 1.502843 -100.464686 7.559698 21.406773 91.535258 4.997367 5.880389 11.104578 1.072456 -22.470561 0.726748 -1.089101 12.142658 0.000000 0.000000 0.000000 7.237788 -13.866945 1.369675 -114.641296 17.155062 -6.403329 109.752035 -11.085453 -3.101976 30.015461 -3.838126 25.971530 6.240816 8.305785 7.827921 0.000000 0.000000 0.000000 10.156167 -12.620743 0.545072 4.551700 -1.554727 0.205057 11.111342 -0.954678 -0.546864 1.597627 -3.431816 2.770640 0.000000 0.000000 0.000000 13.405091 -1.046641 -0.426628 -22.850499 0.724793 -2.080153 0.740142 -4.386854 1.212797 0.000000 0.000000 0.000000 13.136526 -1.070731 -0.799846 1.055248 -14.284022 27.023112 -0.157117 8.718285 -7.609042 -59.576250 -22.081537 -12.451084 30.824825 -70.472007 55.122144 0.000000 0.000000 0.000000 12.757074 -0.656194 -0.391515 2.967811 9.520597 -6.730191 7.166234 9.858710 1.157421 -75.857112 35.985582 23.024481 -12.514357 75.857488 -27.528661 0.000000 0.000000 0.000000 
4.452164 192.428986 -27.342426 0.000000 0.000000 0.000000 3.485437 -9.301790 1.811569 -103.257816 4.012226 19.060095 90.297676 3.367737 3.406434 10.928426 4.374208 -22.629979 3.336265 -1.965177 11.094876 0.000000 0.000000 0.000000 6.144680 -14.290314 1.842978 -113.387028 12.656919 -8.867256 103.589921 -7.744017 -4.448743 29.058097 -1.743865 29.019565 1.968144 6.269158 3.335635 0.000000 0.000000 0.000000 9.409195 -13.462581 0.455998 5.126861 -1.562646 0.307403 14.309312 -0.661590 -0.588641 1.983973 -2.711744 3.052538 0.000000 0.000000 0.000000 16.356889 -0.571307 -0.615556 -24.370769 1.786898 -1.715395 3.364009 -5.453231 3.292493 0.000000 0.000000 0.000000 16.234952 -0.672194 -1.111783 2.584654 -16.963714 29.699435 -0.753058 5.284560 -6.802750 -59.543786 -17.834558 -9.977961 16.966984 -65.788662 46.641009 0.000000 0.000000 0.000000 15.822038 -0.130277 -0.572122 3.684033 10.523604 -8.538885 8.628247 10.020348 0.070246 -84.079595 37.234728 26.281397 -30.966882 76.332869 -10.766326 0.000000 0.000000 0.000000 
4.534747 192.130127 -29.260662 0.000000 0.000000 0.000000 2.810218 -10.159299 2.222822 -102.802106 1.808522 16.067130 83.402245 1.064793 2.167988 10.791538 6.901979 -20.996626 4.767770 -2.787171 9.138939 0.000000 0.000000 0.000000 5.391044 -13.628194 2.360287 -109.816178 6.821238 -11.198097 93.221010 -4.549622 -5.320567 26.948170 0.269089 29.019660 -0.756209 5.664728 -0.499415 0.000000 0.000000 0.000000 8.598872 -14.088219 0.417339 5.211203 -1.196507 0.557961 17.304810 -0.265460 -0.716037 2.152422 -2.671119 3.065886 0.000000 0.000000 0.000000 19.078125 0.047383 -0.868746 -24.802768 2.834757 -1.664555 6.791950 -6.711226 5.522196 0.000000 0.000000 0.000000 19.157035 -0.250448 -1.370126 3.901077 -18.754948 31.458246 -1.870405 1.595155 -5.166087 -63.042386 -15.360803 -8.421372 7.332538 -60.015117 42.005325 0.000000 0.000000 0.000000 18.503870 0.467079 -0.707443 4.763550 12.287515 -10.776740 9.830837 10.129599 -0.949894 -90.056024 39.409201 26.762093 -38.892887 71.322891 -4.078370 0.000000 0.000000 0.000000 
4.264654 192.189178 -30.592564 0.000000 0.000000 0.000000 2.096032 -9.769468 2.657289 -99.451967 1.171208 12.947815 71.568758 -2.042395 1.613550 10.329923 8.330324 -17.767465 4.357761 -3.521950 6.764694 0.000000 0.000000 0.000000 4.192761 -13.117860 2.789563 -104.943780 0.181128 -13.104682 79.250733 -2.193927 -4.917963 24.760383 1.131691 25.454409 -1.764531 6.157273 -2.305991 0.000000 0.000000 0.000000 7.628885 -14.581921 0.496577 5.055624 -0.689374 0.864897 19.831459 0.126521 -0.866911 1.519103 -2.090401 2.402733 0.000000 0.000000 0.000000 21.240106 0.673933 -1.122605 -24.037606 3.955843 -2.015332 10.564421 -7.932183 7.554736 0.000000 0.000000 0.000000 21.605319 0.149825 -1.549000 4.782156 -19.372676 32.490879 -2.723589 -1.642911 -3.164588 -68.387057 -14.944643 -6.933602 -0.956254 -53.073439 38.253506 0.000000 0.000000 0.000000 20.555109 0.964749 -0.743217 6.336610 14.246835 -13.879599 10.220077 9.499750 -1.549495 -91.411495 42.112050 23.224854 -38.785888 62.802920 -5.069250 0.000000 0.000000 0.000000 
